<svg width="20" height="18" viewBox="0 0 20 18" fill="none" xmlns="http://www.w3.org/2000/svg">
<path d="M20 1.02926C17.3099 0.593849 15.3119 1.10842 14.0058 2.57298C12.6998 4.03754 12.0468 6.19479 12.0468 9.04473V17.1196H20V9.04473H15.9064C15.692 7.61976 15.8869 6.46197 16.4912 5.57136C17.115 4.68075 18.1287 4.29482 19.5322 4.41357L20 1.02926ZM7.95322 1.02926C5.26316 0.593849 3.26511 1.10842 1.95906 2.57298C0.653022 4.03754 0 6.19479 0 9.04473V17.1196H7.95322V9.04473H3.85965C3.64522 7.61976 3.84016 6.46197 4.44444 5.57136C5.06823 4.68075 6.08187 4.29482 7.48538 4.41357L7.95322 1.02926Z" fill="white"/>
</svg>
